<?xml version="1.0" standalone="no"?>
<!DOCTYPE svg PUBLIC "-//W3C//DTD SVG 20010904//EN"
 "http://www.w3.org/TR/2001/REC-SVG-20010904/DTD/svg10.dtd">
<svg version="1.0" xmlns="http://www.w3.org/2000/svg"
 width="461.000000pt" height="461.000000pt" viewBox="0 0 461.000000 461.000000"
 preserveAspectRatio="xMidYMid meet">
<metadata>
Created by potrace 1.14, written by Peter Selinger 2001-2017
</metadata>
<g transform="translate(0.000000,461.000000) scale(0.100000,-0.100000)"
fill="#000000" stroke="none">
<path d="M2295 4542 c-104 -18 -123 -101 -32 -137 38 -15 44 -15 83 0 59 22
73 62 39 104 -25 29 -53 40 -90 33z m64 -48 c11 -10 12 -19 4 -37 -23 -50
-118 -39 -118 13 0 45 75 61 114 24z"/>
<path d="M1793 4509 c-18 -5 -40 -20 -49 -34 -30 -46 5 -91 80 -100 114 -14
157 104 49 134 -21 6 -40 11 -43 10 -3 0 -20 -5 -37 -10z m98 -41 c32 -49 -52
-93 -103 -54 -23 17 -23 34 -1 59 14 15 27 18 57 14 21 -3 43 -11 47 -19z"/>
<path d="M2723 4505 c-30 -13 -53 -41 -53 -66 0 -6 16 -26 35 -44 41 -39 45
-28 -62 -186 -76 -113 -105 -139 -154 -139 -63 0 -84 28 -131 175 -23 74 -45
135 -48 135 -3 0 -23 -57 -45 -128 -46 -149 -71 -182 -132 -182 -53 1 -84 31
-178 173 -43 64 -82 117 -86 117 -4 0 -5 -15 -3 -32 2 -18 6 -80 8 -138 3 -85
1 -108 -12 -122 -17 -21 -72 -24 -105 -7 -25 13 -159 131 -225 197 -43 43 -44
44 -23 58 13 9 21 26 21 43 0 75 -137 101 -188 36 -40 -50 -1 -97 86 -103 65
-5 47 16 182 -205 47 -76 116 -187 153 -245 38 -59 72 -113 76 -120 4 -8 25
-14 47 -14 21 0 231 0 465 1 l426 1 60 98 c33 53 78 126 99 162 22 36 43 70
47 75 5 6 41 62 81 125 l72 115 46 3 c128 8 128 142 1 142 -93 0 -130 -52 -81
-115 l21 -27 -44 -42 c-86 -80 -203 -178 -225 -188 -26 -12 -90 -3 -100 14 -8
12 -6 241 2 273 3 13 21 25 52 35 50 16 74 46 65 81 -12 45 -92 68 -150 44z
m98 -34 c20 -16 22 -23 13 -38 -28 -45 -116 -41 -122 7 -7 47 64 68 109 31z
m-1356 -73 c28 -13 34 -48 11 -67 -24 -20 -75 -16 -98 7 l-21 20 26 26 c29 29
44 31 82 14z m1753 -4 c43 -30 18 -78 -39 -76 -38 1 -59 18 -59 47 0 16 8 26
28 33 38 14 45 14 70 -4z m-864 -320 c23 -22 20 -106 -7 -183 -12 -36 -27 -66
-33 -68 -21 -7 -64 121 -64 194 0 32 5 46 22 57 29 20 62 20 82 0z m-350 -14
c32 -12 56 -88 56 -182 0 -91 -15 -89 -67 10 -47 89 -59 132 -43 161 12 24 18
25 54 11z m657 0 c34 -19 23 -71 -40 -187 -48 -90 -63 -84 -57 20 5 105 33
176 69 177 5 0 17 -5 28 -10z m-913 -73 c23 -25 82 -148 82 -172 0 -8 -3 -15
-7 -15 -11 1 -105 135 -120 170 -18 45 9 56 45 17z m1176 8 c3 -8 1 -15 -4
-15 -6 0 -10 -7 -10 -16 0 -16 -46 -88 -84 -131 -23 -27 -39 -21 -27 10 50
129 107 199 125 152z"/>
<path d="M955 3610 c-9 -15 -3 -2456 7 -2545 18 -168 73 -320 147 -406 20 -22
63 -60 96 -84 56 -40 345 -188 550 -282 50 -23 128 -59 175 -81 47 -22 152
-70 234 -107 l148 -67 77 35 c42 20 128 59 191 87 63 29 149 68 190 87 41 20
107 51 147 69 140 65 429 211 473 239 106 67 200 194 232 315 43 160 41 120
42 1465 l1 1280 -1352 3 c-867 1 -1354 -1 -1358 -8z"/>
</g>
</svg>
